<svg width="922" height="870" viewBox="0 0 922 870" fill="none" xmlns="http://www.w3.org/2000/svg">
<path fill-rule="evenodd" clip-rule="evenodd" d="M131.261 760.083C258.598 735.687 366.545 656.712 429.817 548.444L430 549C430 549 430.248 548.251 430.762 546.819C443.845 524.212 454.985 500.339 463.954 475.43C506.702 397.81 594.012 277.09 749 206L748.077 205.307C849.888 165.491 922 66.4167 922 -49.5C922 -200.55 799.55 -323 648.5 -323C512.379 -323 399.483 -223.558 378.498 -93.3569C370.424 -100.214 366 -104 366 -104L267.873 -58.3073C202.986 -95.6445 127.737 -117 47.5 -117C-196.886 -117 -395 81.114 -395 325.5C-395 424.412 -362.547 515.743 -307.708 589.428L-303 870L131.261 760.083Z" fill="#F1F4F8"/>
</svg>
